2.8Hzhigh3min_grf.mot
version=1
nRows=17
nColumns 19
inDegrees=yes
endheader
time	1_ground_force_vx	1_ground_force_vy	1_ground_force_vz	1_ground_force_px	1_ground_force_py	1_ground_force_pz	1_ground_torque_x	1_ground_torque_y	1_ground_torque_z	2_ground_force_vx	2_ground_force_vy	2_ground_force_vz	2_ground_force_px	2_ground_force_py	2_ground_force_pz	2_ground_torque_x	2_ground_torque_y	2_ground_torque_z
            2.502500	            2.702974	           10.275469	            0.083202	           -0.225960	            0.006309	           -0.425167	            0.033579	            0.127653	            0.001034	           -1.416028	            2.940462	            0.245751	           -0.232311	            0.006130	           -0.833667	           -0.525554	           -0.133901	           -0.094500
            2.503000	            2.564894	            9.555560	           -0.194684	           -0.233013	            0.005581	           -0.255695	            1.674545	           -0.349510	            0.047075	           -1.415466	            2.757150	            0.010454	           -0.232311	            0.006130	           -0.833667	           -0.487915	           -0.152671	           -0.094583
            2.503500	            2.702162	            9.736245	           -0.285964	           -0.233013	            0.005581	           -0.255695	            1.565574	           -0.303013	           -0.002992	           -0.948338	            3.127473	           -0.082288	           -0.232311	            0.006130	           -0.833667	           -0.300043	           -0.161311	           -0.132397
            2.504000	            2.748415	            8.113666	           -0.247179	           -0.233013	            0.005581	           -0.255695	            1.395762	           -0.293860	            0.018280	           -1.086791	            2.573684	            0.150441	           -0.232311	            0.006130	           -0.833667	           -0.394030	           -0.142811	           -0.113439
            2.504500	            3.115336	            9.014476	           -0.106656	           -0.233013	            0.005581	           -0.255695	            1.314415	           -0.330918	            0.090323	           -1.038111	            2.022747	           -0.226975	           -0.232311	            0.006130	           -0.833667	           -0.375108	           -0.180554	           -0.113582
            2.505000	            2.611863	            7.751536	            0.118464	           -0.233013	            0.005581	           -0.255695	            1.380489	           -0.358859	            0.068582	           -0.802594	            1.655798	           -0.369173	           -0.232311	            0.006130	           -0.833667	           -0.394098	           -0.123906	           -0.113372
            2.505500	            2.841224	            7.571118	            0.162978	           -0.233013	            0.005581	           -0.255695	            1.190869	           -0.404844	            0.041039	           -1.131229	            1.838930	           -0.415304	           -0.232311	            0.006130	           -0.833667	           -0.281438	           -0.104728	           -0.075652
            2.506000	            2.887801	            6.668815	            0.388279	           -0.233013	            0.005581	           -0.255695	            1.256485	           -0.404319	           -0.069923	           -0.849403	            1.655294	           -0.275296	           -0.232311	            0.006130	           -0.833667	           -0.300121	           -0.133154	           -0.075745
            2.506500	            2.795303	            6.129573	            0.019340	           -0.233013	            0.005581	           -0.255695	            1.085102	           -0.321862	            0.077350	           -0.422396	            0.183295	           -0.186876	           -0.232311	            0.006130	           -0.833667	           -0.281370	           -0.123634	           -0.075719
            2.507000	            2.841634	            5.948530	            0.201877	           -0.233013	            0.005581	           -0.255695	            1.002168	           -0.293878	            0.023243	           -0.376937	            0.552263	           -0.326366	           -0.232311	            0.006130	           -0.833667	           -0.224971	           -0.132950	           -0.056927
            2.507500	            2.749460	            6.129564	            0.019454	           -0.233013	            0.005581	           -0.255695	            0.878331	           -0.358413	           -0.037036	           -0.380342	            1.473674	           -0.510793	           -0.232311	            0.006130	           -0.833667	           -0.206321	           -0.104255	           -0.132235
            2.508000	            2.932964	            5.408537	            0.015907	           -0.233013	            0.005581	           -0.255695	            0.916260	           -0.330430	           -0.066762	           -0.141297	            0.184310	           -0.186996	           -0.232311	            0.006130	           -0.833667	           -0.131259	           -0.066644	           -0.000180
            2.508500	            2.795498	            6.309446	            0.111825	           -0.233013	            0.005581	           -0.255695	            0.893184	           -0.404764	            0.002273	           -0.327244	           -0.185667	            0.093339	           -0.232311	            0.006130	           -0.833667	           -0.168768	           -0.094801	           -0.094516
            2.509000	            2.703830	            5.588562	            0.063105	           -0.233013	            0.005581	           -0.255695	            0.858268	           -0.331270	            0.092781	           -0.375628	            0.184134	           -0.374608	           -0.232311	            0.006130	           -0.833667	           -0.206545	           -0.029037	           -0.018864
            2.509500	            2.521698	            3.784297	            0.422678	           -0.233013	            0.005581	           -0.255695	            0.711984	           -0.312238	           -0.064914	           -0.376170	            0.367278	           -0.092383	           -0.232311	            0.006130	           -0.833667	           -0.206638	           -0.009930	           -0.075347
            2.510000	            2.750700	            4.325335	            0.378572	           -0.233013	            0.005581	           -0.255695	            0.694932	           -0.284569	           -0.017402	           -0.186899	           -0.183486	           -0.376002	           -0.232311	            0.006130	           -0.833667	           -0.074791	           -0.104049	           -0.056890
            2.510500	            2.566888	            4.866686	            0.243778	           -0.233013	            0.005581	           -0.255695	            0.663124	           -0.303554	            0.068748	           -0.000144	            0.001172	           -0.328497	           -0.232311	            0.006130	           -0.833667	           -0.187698	           -0.056991	           -0.113224
